<svg xmlns="http://www.w3.org/2000/svg" width="64" height="64" viewBox="0 0 16.933 16.933">
  <g fill="none" stroke="#000" stroke-width=".86141">
    <path d="M15.669 5.27s-1.81.688-2.473 1.352c-.664.665-1.353 2.474-1.353 2.474s-.688-1.81-1.352-2.474C9.827 5.958 8.018 5.27 8.018 5.27s1.809-.688 2.473-1.352c.664-.665 1.352-2.473 1.352-2.473s.689 1.808 1.353 2.473c.664.664 2.473 1.352 2.473 1.352z"/>
    <path stroke-linecap="round" d="M14.067 8.419a6.838 6.838 0 0 1-3.74 7.253 6.838 6.838 0 0 1-8.023-1.495 6.838 6.838 0 0 1-.878-8.113A6.838 6.838 0 0 1 8.944 2.89"/>
  </g>
</svg>
